KA Almouzios Main-Regular.ufo
<glyph name="exclam" format="2">
	<advance width="641"/>
	<unicode hex="0021"/>
	<outline>
		<contour>
			<point x="323" y="-49" type="curve"/>
			<point x="323" y="-49" type="line"/>
			<point x="284" y="-34"/>
			<point x="299" y="-6"/>
			<point x="354" y="4" type="curve"/>
			<point x="407" y="13"/>
			<point x="416" y="35"/>
			<point x="382" y="69" type="curve"/>
			<point x="353" y="98"/>
			<point x="291" y="112"/>
			<point x="162" y="119" type="curve"/>
			<point x="43" y="125"/>
			<point x="19" y="135"/>
			<point x="34" y="174" type="curve"/>
			<point x="55" y="227"/>
			<point x="504" y="142"/>
			<point x="582" y="69" type="curve"/>
			<point x="635" y="20"/>
			<point x="615" y="-16"/>
			<point x="522" y="-44" type="curve"/>
			<point x="462" y="-61"/>
			<point x="360" y="-64"/>
		</contour>
	</outline>
</glyph>
<glyph name="quotedbl" format="2">
	<advance width="0"/>
	<unicode hex="0022"/>
	<outline>
		<contour>
			<point x="-242" y="-514" type="curve"/>
			<point x="-242" y="-514" type="line"/>
			<point x="-279" y="-498"/>
			<point x="-286" y="-479"/>
			<point x="-267" y="-441" type="curve"/>
			<point x="-237" y="-382"/>
			<point x="-217" y="-385"/>
			<point x="-615" y="-381" type="curve"/>
			<point x="-905" y="-378"/>
			<point x="-979" y="-375"/>
			<point x="-992" y="-366" type="curve"/>
			<point x="-1032" y="-332"/>
			<point x="-1017" y="-331"/>
			<point x="-641" y="-325" type="curve"/>
			<point x="-439" y="-322"/>
			<point x="-226" y="-316"/>
			<point x="-165" y="-313" type="curve"/>
			<point x="-34" y="-307"/>
			<point x="-28" y="-312"/>
			<point x="-66" y="-386" type="curve"/>
			<point x="-79" y="-411"/>
			<point x="-95" y="-454"/>
			<point x="-100" y="-481" type="curve"/>
			<point x="-113" y="-528" type="line"/>
			<point x="-162" y="-528" type="line" smooth="yes"/>
			<point x="-190" y="-528"/>
			<point x="-226" y="-521"/>
		</contour>
	</outline>
</glyph>
<glyph name="percent" format="2">
	<advance width="1165"/>
	<unicode hex="0025"/>
	<outline>
		<contour>
			<point x="563" y="-49" type="curve"/>
			<point x="563" y="-49" type="line"/>
			<point x="524" y="-34"/>
			<point x="539" y="-6"/>
			<point x="594" y="4" type="curve"/>
			<point x="647" y="13"/>
			<point x="656" y="35"/>
			<point x="622" y="69" type="curve"/>
			<point x="593" y="98"/>
			<point x="531" y="112"/>
			<point x="402" y="119" type="curve"/>
			<point x="283" y="125"/>
			<point x="259" y="135"/>
			<point x="274" y="174" type="curve"/>
			<point x="295" y="227"/>
			<point x="744" y="142"/>
			<point x="822" y="69" type="curve"/>
			<point x="875" y="20"/>
			<point x="855" y="-16"/>
			<point x="762" y="-44" type="curve"/>
			<point x="702" y="-61"/>
			<point x="600" y="-64"/>
		</contour>
		<contour>
			<point x="605" y="220" type="curve"/>
			<point x="605" y="220" type="line"/>
			<point x="600" y="221"/>
			<point x="585" y="225"/>
			<point x="570" y="227" type="curve"/>
			<point x="542" y="234"/>
			<point x="539" y="249"/>
			<point x="559" y="287" type="curve"/>
			<point x="575" y="318"/>
			<point x="574" y="318"/>
			<point x="495" y="328" type="curve"/>
			<point x="471" y="331"/>
			<point x="417" y="345"/>
			<point x="378" y="358" type="curve"/>
			<point x="283" y="390"/>
			<point x="232" y="436"/>
			<point x="197" y="531" type="curve"/>
			<point x="162" y="625"/>
			<point x="137" y="650"/>
			<point x="87" y="650" type="curve"/>
			<point x="52" y="650"/>
			<point x="45" y="654"/>
			<point x="36" y="674" type="curve"/>
			<point x="17" y="714"/>
			<point x="43" y="721"/>
			<point x="146" y="704" type="curve"/>
			<point x="248" y="687"/>
			<point x="316" y="635"/>
			<point x="338" y="557" type="curve"/>
			<point x="363" y="467"/>
			<point x="436" y="407"/>
			<point x="532" y="391" type="curve"/>
			<point x="569" y="385"/>
			<point x="570" y="385"/>
			<point x="577" y="416" type="curve"/>
			<point x="586" y="458"/>
			<point x="597" y="469"/>
			<point x="635" y="469" type="curve"/>
			<point x="708" y="469"/>
			<point x="722" y="454"/>
			<point x="694" y="409" type="curve"/>
			<point x="686" y="397"/>
			<point x="682" y="383"/>
			<point x="685" y="380" type="curve"/>
			<point x="688" y="377"/>
			<point x="764" y="371"/>
			<point x="852" y="367" type="curve"/>
			<point x="1063" y="357"/>
			<point x="1135" y="340"/>
			<point x="1135" y="296" type="curve"/>
			<point x="1135" y="271"/>
			<point x="1122" y="268"/>
			<point x="1083" y="283" type="curve"/>
			<point x="1054" y="294"/>
			<point x="1007" y="298"/>
			<point x="864" y="299" type="curve"/>
			<point x="702" y="300"/>
			<point x="682" y="299"/>
			<point x="682" y="286" type="curve"/>
			<point x="682" y="255"/>
			<point x="633" y="213"/>
		</contour>
	</outline>
</glyph>
<glyph name="quotesingle" format="2">
	<advance width="0"/>
	<unicode hex="0027"/>
	<outline>
		<contour>
			<point x="-242" y="-384" type="curve"/>
			<point x="-242" y="-384" type="line"/>
			<point x="-279" y="-368"/>
			<point x="-286" y="-349"/>
			<point x="-267" y="-311" type="curve"/>
			<point x="-237" y="-252"/>
			<point x="-217" y="-255"/>
			<point x="-615" y="-251" type="curve"/>
			<point x="-905" y="-248"/>
			<point x="-979" y="-245"/>
			<point x="-992" y="-236" type="curve"/>
			<point x="-1032" y="-202"/>
			<point x="-1017" y="-201"/>
			<point x="-641" y="-195" type="curve"/>
			<point x="-439" y="-192"/>
			<point x="-226" y="-186"/>
			<point x="-165" y="-183" type="curve"/>
			<point x="-34" y="-177"/>
			<point x="-28" y="-182"/>
			<point x="-66" y="-256" type="curve"/>
			<point x="-79" y="-281"/>
			<point x="-95" y="-324"/>
			<point x="-100" y="-351" type="curve"/>
			<point x="-113" y="-398" type="line"/>
			<point x="-162" y="-398" type="line" smooth="yes"/>
			<point x="-190" y="-398"/>
			<point x="-226" y="-391"/>
		</contour>
	</outline>
</glyph>
<glyph name="slash" format="2">
	<advance width="354"/>
	<unicode hex="002F"/>
	<outline>
		<contour>
			<point x="462" y="-251" type="curve"/>
			<point x="462" y="-251" type="line"/>
			<point x="414" y="-235"/>
			<point x="355" y="-211"/>
			<point x="332" y="-197" type="curve"/>
			<point x="270" y="-161"/>
			<point x="197" y="-79"/>
			<point x="166" y="-12" type="curve"/>
			<point x="96" y="143"/>
			<point x="50" y="190"/>
			<point x="-30" y="190" type="curve"/>
			<point x="-72" y="190"/>
			<point x="-91" y="209"/>
			<point x="-73" y="234" type="curve"/>
			<point x="-44" y="274"/>
			<point x="87" y="261"/>
			<point x="168" y="210" type="curve"/>
			<point x="225" y="174"/>
			<point x="272" y="102"/>
			<point x="310" y="-5" type="curve"/>
			<point x="347" y="-111"/>
			<point x="414" y="-180"/>
			<point x="526" y="-230" type="curve"/>
			<point x="569" y="-249"/>
			<point x="604" y="-268"/>
			<point x="604" y="-273" type="curve"/>
			<point x="604" y="-287"/>
			<point x="547" y="-279"/>
		</contour>
	</outline>
</glyph>
<glyph name="zero" format="2">
	<advance width="1102"/>
	<unicode hex="0030"/>
	<outline>
		<contour>
			<point x="1030" y="-33" type="curve"/>
			<point x="1030" y="-33" type="line"/>
			<point x="969" y="-2"/>
			<point x="893" y="4"/>
			<point x="597" y="-3" type="curve"/>
			<point x="279" y="-11"/>
			<point x="247" y="-8"/>
			<point x="122" y="48" type="curve"/>
			<point x="43" y="83"/>
			<point x="30" y="97"/>
			<point x="30" y="149" type="curve"/>
			<point x="30" y="192"/>
			<point x="31" y="194"/>
			<point x="77" y="214" type="curve"/>
			<point x="137" y="240"/>
			<point x="189" y="240"/>
			<point x="263" y="212" type="curve"/>
			<point x="326" y="188"/>
			<point x="349" y="162"/>
			<point x="325" y="142" type="curve"/>
			<point x="313" y="132"/>
			<point x="302" y="134"/>
			<point x="270" y="150" type="curve"/>
			<point x="230" y="169"/>
			<point x="230" y="169"/>
			<point x="205" y="150" type="curve"/>
			<point x="175" y="127"/>
			<point x="174" y="111"/>
			<point x="199" y="88" type="curve"/>
			<point x="218" y="71"/>
			<point x="228" y="71"/>
			<point x="397" y="86" type="curve"/>
			<point x="728" y="116"/>
			<point x="933" y="103"/>
			<point x="1031" y="46" type="curve"/>
			<point x="1086" y="14"/>
			<point x="1084" y="-62"/>
		</contour>
	</outline>
</glyph>
<glyph name="colon" format="2">
	<advance width="0"/>
	<unicode hex="003A"/>
	<outline>
		<contour>
			<point x="288" y="-514" type="curve"/>
			<point x="288" y="-514" type="line"/>
			<point x="251" y="-498"/>
			<point x="244" y="-479"/>
			<point x="263" y="-441" type="curve"/>
			<point x="293" y="-382"/>
			<point x="313" y="-385"/>
			<point x="-85" y="-381" type="curve"/>
			<point x="-375" y="-378"/>
			<point x="-449" y="-375"/>
			<point x="-462" y="-366" type="curve"/>
			<point x="-502" y="-332"/>
			<point x="-487" y="-331"/>
			<point x="-111" y="-325" type="curve"/>
			<point x="91" y="-322"/>
			<point x="304" y="-316"/>
			<point x="365" y="-313" type="curve"/>
			<point x="496" y="-307"/>
			<point x="502" y="-312"/>
			<point x="464" y="-386" type="curve"/>
			<point x="451" y="-411"/>
			<point x="435" y="-454"/>
			<point x="430" y="-481" type="curve"/>
			<point x="417" y="-528" type="line"/>
			<point x="368" y="-528" type="line" smooth="yes"/>
			<point x="340" y="-528"/>
			<point x="304" y="-521"/>
		</contour>
	</outline>
</glyph>
<glyph name="semicolon" format="2">
	<advance width="0"/>
	<unicode hex="003B"/>
	<outline>
		<contour>
			<point x="288" y="-384" type="curve"/>
			<point x="288" y="-384" type="line"/>
			<point x="250" y="-369"/>
			<point x="244" y="-349"/>
			<point x="263" y="-311" type="curve"/>
			<point x="293" y="-252"/>
			<point x="313" y="-255"/>
			<point x="-85" y="-251" type="curve"/>
			<point x="-375" y="-248"/>
			<point x="-449" y="-245"/>
			<point x="-462" y="-236" type="curve"/>
			<point x="-502" y="-202"/>
			<point x="-487" y="-200"/>
			<point x="-111" y="-195" type="curve"/>
			<point x="91" y="-192"/>
			<point x="304" y="-186"/>
			<point x="365" y="-183" type="curve"/>
			<point x="496" y="-177"/>
			<point x="502" y="-182"/>
			<point x="464" y="-256" type="curve"/>
			<point x="451" y="-281"/>
			<point x="435" y="-324"/>
			<point x="430" y="-351" type="curve"/>
			<point x="417" y="-398" type="line"/>
			<point x="368" y="-398" type="line" smooth="yes"/>
			<point x="340" y="-398"/>
			<point x="304" y="-391"/>
		</contour>
	</outline>
</glyph>
<glyph name="equal" format="2">
	<advance width="160"/>
	<unicode hex="003D"/>
	<outline>
		<contour>
			<point x="27" y="448" type="curve"/>
			<point x="27" y="448" type="line"/>
			<point x="15" y="454"/>
			<point x="18" y="465"/>
			<point x="38" y="487" type="curve"/>
			<point x="76" y="529"/>
			<point x="88" y="558"/>
			<point x="94" y="609" type="curve"/>
			<point x="97" y="634"/>
			<point x="96" y="639"/>
			<point x="90" y="638" type="curve"/>
			<point x="39" y="627"/>
			<point x="1" y="645"/>
			<point x="5" y="691" type="curve"/>
			<point x="9" y="741"/>
			<point x="56" y="764"/>
			<point x="98" y="746" type="curve"/>
			<point x="137" y="729"/>
			<point x="163" y="657"/>
			<point x="153" y="600" type="curve"/>
			<point x="145" y="559"/>
			<point x="120" y="512"/>
			<point x="80" y="470" type="curve"/>
			<point x="64" y="453"/>
			<point x="39" y="442"/>
		</contour>
	</outline>
</glyph>
<glyph name="question" format="2">
	<advance width="817"/>
	<unicode hex="003F"/>
	<outline>
		<contour>
			<point x="572" y="-251" type="curve"/>
			<point x="572" y="-251" type="line"/>
			<point x="524" y="-235"/>
			<point x="465" y="-211"/>
			<point x="442" y="-197" type="curve"/>
			<point x="380" y="-161"/>
			<point x="307" y="-79"/>
			<point x="276" y="-12" type="curve"/>
			<point x="206" y="143"/>
			<point x="160" y="190"/>
			<point x="80" y="190" type="curve"/>
			<point x="38" y="190"/>
			<point x="19" y="209"/>
			<point x="37" y="234" type="curve"/>
			<point x="66" y="274"/>
			<point x="197" y="261"/>
			<point x="278" y="210" type="curve"/>
			<point x="335" y="174"/>
			<point x="382" y="102"/>
			<point x="420" y="-5" type="curve"/>
			<point x="457" y="-111"/>
			<point x="524" y="-180"/>
			<point x="636" y="-230" type="curve"/>
			<point x="679" y="-249"/>
			<point x="714" y="-268"/>
			<point x="714" y="-273" type="curve"/>
			<point x="714" y="-287"/>
			<point x="657" y="-279"/>
		</contour>
		<contour>
			<point x="486" y="35" type="curve"/>
			<point x="486" y="35" type="line"/>
			<point x="486" y="40"/>
			<point x="493" y="47"/>
			<point x="501" y="50" type="curve"/>
			<point x="510" y="53"/>
			<point x="522" y="69"/>
			<point x="527" y="86" type="curve"/>
			<point x="538" y="115"/>
			<point x="539" y="116"/>
			<point x="604" y="116" type="curve"/>
			<point x="655" y="116"/>
			<point x="667" y="113"/>
			<point x="653" y="105" type="curve"/>
			<point x="644" y="100"/>
			<point x="629" y="79"/>
			<point x="621" y="60" type="curve"/>
			<point x="607" y="27"/>
			<point x="606" y="26"/>
			<point x="547" y="26" type="curve"/>
			<point x="513" y="26"/>
			<point x="486" y="30"/>
		</contour>
		<contour>
			<point x="490" y="264" type="curve"/>
			<point x="490" y="264" type="line"/>
			<point x="462" y="294"/>
			<point x="439" y="324"/>
			<point x="439" y="329" type="curve"/>
			<point x="439" y="336"/>
			<point x="498" y="340"/>
			<point x="615" y="340" type="curve"/>
			<point x="751" y="340"/>
			<point x="790" y="337"/>
			<point x="787" y="327" type="curve"/>
			<point x="784" y="319"/>
			<point x="748" y="313"/>
			<point x="674" y="310" type="curve"/>
			<point x="566" y="305" type="line"/>
			<point x="594" y="272" type="line" smooth="yes"/>
			<point x="616" y="246"/>
			<point x="619" y="237"/>
			<point x="609" y="225" type="curve"/>
			<point x="583" y="194"/>
			<point x="544" y="206"/>
		</contour>
	</outline>
</glyph>
<glyph name="at" format="2">
	<advance width="1126"/>
	<unicode hex="0040"/>
	<outline>
		<contour>
			<point x="259" y="-69" type="curve"/>
			<point x="259" y="-69" type="line"/>
			<point x="125" y="-47"/>
			<point x="43" y="-8"/>
			<point x="32" y="36" type="curve"/>
			<point x="15" y="105"/>
			<point x="86" y="146"/>
			<point x="285" y="181" type="curve"/>
			<point x="415" y="204"/>
			<point x="538" y="202"/>
			<point x="736" y="175" type="curve"/>
			<point x="991" y="139"/>
			<point x="1103" y="81"/>
			<point x="1096" y="-14" type="curve"/>
			<point x="1093" y="-52"/>
			<point x="1090" y="-56"/>
			<point x="1053" y="-68" type="curve"/>
			<point x="985" y="-91"/>
			<point x="778" y="-70"/>
			<point x="778" y="-41" type="curve"/>
			<point x="778" y="-35"/>
			<point x="795" y="-28"/>
			<point x="816" y="-25" type="curve"/>
			<point x="900" y="-10"/>
			<point x="911" y="4"/>
			<point x="870" y="45" type="curve"/>
			<point x="803" y="113"/>
			<point x="688" y="143"/>
			<point x="498" y="144" type="curve"/>
			<point x="298" y="145"/>
			<point x="208" y="115"/>
			<point x="208" y="49" type="curve"/>
			<point x="208" y="15"/>
			<point x="250" y="-16"/>
			<point x="309" y="-26" type="curve"/>
			<point x="357" y="-34"/>
			<point x="370" y="-43"/>
			<point x="362" y="-63" type="curve"/>
			<point x="355" y="-81"/>
			<point x="341" y="-82"/>
		</contour>
	</outline>
</glyph>
<glyph name="A" format="2">
	<advance width="0"/>
	<unicode hex="0041"/>
	<outline>
		<contour>
			<point x="-539" y="-233" type="curve"/>
			<point x="-539" y="-233" type="line"/>
			<point x="-642" y="-219"/>
			<point x="-700" y="-187"/>
			<point x="-709" y="-151" type="curve"/>
			<point x="-720" y="-108"/>
			<point x="-696" y="-121"/>
			<point x="-640" y="-144" type="curve"/>
			<point x="-525" y="-191"/>
			<point x="-446" y="-202"/>
			<point x="-494" y="-161" type="curve"/>
			<point x="-533" y="-128"/>
			<point x="-516" y="-112"/>
			<point x="-445" y="-112" type="curve"/>
			<point x="-380" y="-112"/>
			<point x="-338" y="-125"/>
			<point x="-329" y="-151" type="curve"/>
			<point x="-320" y="-178"/>
			<point x="-323" y="-207"/>
			<point x="-340" y="-224" type="curve"/>
			<point x="-355" y="-239"/>
			<point x="-369" y="-241"/>
			<point x="-428" y="-241" type="curve"/>
			<point x="-468" y="-241"/>
			<point x="-517" y="-236"/>
		</contour>
	</outline>
</glyph>
<glyph name="S" format="2">
	<advance width="0"/>
	<unicode hex="0053"/>
	<outline>
		<contour>
			<point x="-519" y="-283" type="curve"/>
			<point x="-519" y="-283" type="line"/>
			<point x="-622" y="-269"/>
			<point x="-680" y="-237"/>
			<point x="-689" y="-201" type="curve"/>
			<point x="-700" y="-158"/>
			<point x="-676" y="-171"/>
			<point x="-620" y="-194" type="curve"/>
			<point x="-505" y="-241"/>
			<point x="-426" y="-252"/>
			<point x="-474" y="-211" type="curve"/>
			<point x="-513" y="-178"/>
			<point x="-496" y="-162"/>
			<point x="-425" y="-162" type="curve"/>
			<point x="-360" y="-162"/>
			<point x="-318" y="-175"/>
			<point x="-309" y="-201" type="curve"/>
			<point x="-300" y="-228"/>
			<point x="-303" y="-257"/>
			<point x="-320" y="-274" type="curve"/>
			<point x="-335" y="-289"/>
			<point x="-349" y="-291"/>
			<point x="-408" y="-291" type="curve"/>
			<point x="-448" y="-291"/>
			<point x="-497" y="-286"/>
		</contour>
	</outline>
</glyph>
<glyph name="bracketleft" format="2">
	<advance width="0"/>
	<unicode hex="005B"/>
	<outline>
		<contour>
			<point x="443" y="-317" type="curve"/>
			<point x="443" y="-317" type="line"/>
			<point x="85" y="-242"/>
			<point x="-62" y="-240"/>
			<point x="-240" y="-303" type="curve"/>
			<point x="-365" y="-347"/>
			<point x="-457" y="-351"/>
			<point x="-529" y="-316" type="curve"/>
			<point x="-574" y="-295"/>
			<point x="-598" y="-259"/>
			<point x="-598" y="-212" type="curve"/>
			<point x="-598" y="-185"/>
			<point x="-594" y="-174"/>
			<point x="-577" y="-162" type="curve"/>
			<point x="-542" y="-137"/>
			<point x="-491" y="-140"/>
			<point x="-491" y="-168" type="curve"/>
			<point x="-491" y="-175"/>
			<point x="-500" y="-197"/>
			<point x="-510" y="-216" type="curve"/>
			<point x="-516" y="-228"/>
			<point x="-530" y="-244"/>
			<point x="-529" y="-251" type="curve"/>
			<point x="-525" y="-273"/>
			<point x="-473" y="-285"/>
			<point x="-422" y="-281" type="curve"/>
			<point x="-385" y="-278"/>
			<point x="-322" y="-267"/>
			<point x="-281" y="-254" type="curve"/>
			<point x="-72" y="-193"/>
			<point x="-35" y="-186"/>
			<point x="45" y="-185" type="curve"/>
			<point x="142" y="-185"/>
			<point x="220" y="-198"/>
			<point x="438" y="-251" type="curve"/>
			<point x="716" y="-320"/>
			<point x="827" y="-313"/>
			<point x="781" y="-232" type="curve"/>
			<point x="764" y="-202"/>
			<point x="764" y="-187"/>
			<point x="781" y="-181" type="curve"/>
			<point x="823" y="-166"/>
			<point x="888" y="-194"/>
			<point x="903" y="-235" type="curve"/>
			<point x="922" y="-288"/>
			<point x="890" y="-319"/>
			<point x="802" y="-337" type="curve"/>
			<point x="709" y="-357"/>
			<point x="616" y="-352"/>
		</contour>
		<contour>
			<point x="289" y="-214" type="move" smooth="yes"/>
		</contour>
	</outline>
</glyph>
<glyph name="bracketright" format="2">
	<advance width="0"/>
	<unicode hex="005D"/>
	<outline>
		<contour>
			<point x="31" y="-345" type="curve"/>
			<point x="31" y="-345" type="line"/>
			<point x="-34" y="-325"/>
			<point x="-58" y="-300"/>
			<point x="-58" y="-246" type="curve"/>
			<point x="-58" y="-193"/>
			<point x="-37" y="-162"/>
			<point x="1" y="-135" type="curve"/>
			<point x="18" y="-123"/>
			<point x="60" y="-113"/>
			<point x="103" y="-113" type="curve"/>
			<point x="146" y="-113"/>
			<point x="204" y="-118"/>
			<point x="222" y="-127" type="curve"/>
			<point x="246" y="-139"/>
			<point x="281" y="-163"/>
			<point x="281" y="-215" type="curve"/>
			<point x="281" y="-263"/>
			<point x="262" y="-301"/>
			<point x="221" y="-325" type="curve"/>
			<point x="186" y="-346"/>
			<point x="93" y="-365"/>
		</contour>
		<contour>
			<point x="175" y="-273" type="curve"/>
			<point x="175" y="-273" type="line"/>
			<point x="192" y="-259"/>
			<point x="206" y="-243"/>
			<point x="206" y="-222" type="curve"/>
			<point x="206" y="-178"/>
			<point x="172" y="-153"/>
			<point x="106" y="-153" type="curve"/>
			<point x="62" y="-153"/>
			<point x="51" y="-158"/>
			<point x="23" y="-191" type="curve"/>
			<point x="-7" y="-224"/>
			<point x="-4" y="-260"/>
			<point x="11" y="-282" type="curve"/>
			<point x="32" y="-314"/>
			<point x="137" y="-303"/>
		</contour>
		<component base="bracketleft"/>
	</outline>
</glyph>
<glyph name="a" format="2">
	<advance width="0"/>
	<unicode hex="0061"/>
	<outline>
		<contour>
			<point x="-619" y="207" type="curve"/>
			<point x="-619" y="207" type="line"/>
			<point x="-722" y="221"/>
			<point x="-780" y="253"/>
			<point x="-789" y="289" type="curve"/>
			<point x="-800" y="332"/>
			<point x="-776" y="319"/>
			<point x="-720" y="296" type="curve"/>
			<point x="-605" y="249"/>
			<point x="-526" y="238"/>
			<point x="-574" y="279" type="curve"/>
			<point x="-613" y="312"/>
			<point x="-596" y="328"/>
			<point x="-525" y="328" type="curve"/>
			<point x="-460" y="328"/>
			<point x="-418" y="315"/>
			<point x="-409" y="289" type="curve"/>
			<point x="-400" y="262"/>
			<point x="-403" y="233"/>
			<point x="-420" y="216" type="curve"/>
			<point x="-435" y="201"/>
			<point x="-449" y="199"/>
			<point x="-508" y="199" type="curve"/>
			<point x="-548" y="199"/>
			<point x="-597" y="204"/>
		</contour>
	</outline>
</glyph>
<glyph name="d" format="2">
	<advance width="0"/>
	<unicode hex="0064"/>
	<outline>
		<contour>
			<point x="-519" y="217" type="curve"/>
			<point x="-519" y="217" type="line"/>
			<point x="-622" y="231"/>
			<point x="-680" y="263"/>
			<point x="-689" y="299" type="curve"/>
			<point x="-700" y="342"/>
			<point x="-676" y="329"/>
			<point x="-620" y="306" type="curve"/>
			<point x="-505" y="259"/>
			<point x="-426" y="248"/>
			<point x="-474" y="289" type="curve"/>
			<point x="-513" y="322"/>
			<point x="-496" y="338"/>
			<point x="-425" y="338" type="curve"/>
			<point x="-360" y="338"/>
			<point x="-318" y="325"/>
			<point x="-309" y="299" type="curve"/>
			<point x="-300" y="272"/>
			<point x="-303" y="243"/>
			<point x="-320" y="226" type="curve"/>
			<point x="-335" y="211"/>
			<point x="-349" y="209"/>
			<point x="-408" y="209" type="curve"/>
			<point x="-448" y="209"/>
			<point x="-497" y="214"/>
		</contour>
	</outline>
</glyph>
<glyph name="l" format="2">
	<advance width="0"/>
	<unicode hex="006C"/>
	<outline>
		<contour>
			<point x="118" y="-296" type="curve"/>
			<point x="118" y="-296" type="line"/>
			<point x="90" y="-275"/>
			<point x="106" y="-247"/>
			<point x="143" y="-252" type="curve"/>
			<point x="202" y="-260"/>
			<point x="160" y="-217"/>
			<point x="86" y="-193" type="curve"/>
			<point x="27" y="-174"/>
			<point x="-313" y="-165"/>
			<point x="-530" y="-177" type="curve"/>
			<point x="-637" y="-183"/>
			<point x="-671" y="-182"/>
			<point x="-679" y="-173" type="curve"/>
			<point x="-708" y="-137"/>
			<point x="-564" y="-116"/>
			<point x="-212" y="-116" type="curve"/>
			<point x="9" y="-116"/>
			<point x="24" y="-120"/>
			<point x="85" y="-132" type="curve"/>
			<point x="176" y="-150"/>
			<point x="239" y="-182"/>
			<point x="248" y="-210" type="curve"/>
			<point x="258" y="-240"/>
			<point x="244" y="-289"/>
			<point x="223" y="-300" type="curve"/>
			<point x="196" y="-314"/>
			<point x="140" y="-312"/>
		</contour>
		<component base="_part.haple" xOffset="-308" yOffset="-275"/>
	</outline>
</glyph>
<glyph name="s" format="2">
	<advance width="0"/>
	<unicode hex="0073"/>
	<outline>
		<contour>
			<point x="-396" y="229" type="curve"/>
			<point x="-396" y="229" type="line"/>
			<point x="-489" y="245"/>
			<point x="-544" y="272"/>
			<point x="-552" y="305" type="curve"/>
			<point x="-560" y="339"/>
			<point x="-551" y="343"/>
			<point x="-510" y="324" type="curve"/>
			<point x="-451" y="297"/>
			<point x="-374" y="270"/>
			<point x="-343" y="270" type="curve"/>
			<point x="-314" y="270" type="line"/>
			<point x="-341" y="299" type="line" smooth="yes"/>
			<point x="-378" y="339"/>
			<point x="-363" y="349"/>
			<point x="-277" y="345" type="curve"/>
			<point x="-198" y="341"/>
			<point x="-172" y="322"/>
			<point x="-176" y="271" type="curve"/>
			<point x="-181" y="212"/>
			<point x="-242" y="202"/>
		</contour>
	</outline>
</glyph>
<glyph name="x" format="2">
	<advance width="1256"/>
	<unicode hex="0078"/>
	<outline>
		<contour>
			<point x="653" y="197" type="curve"/>
			<point x="653" y="197" type="line"/>
			<point x="615" y="209"/>
			<point x="558" y="212"/>
			<point x="408" y="211" type="curve"/>
			<point x="233" y="210"/>
			<point x="207" y="212"/>
			<point x="157" y="231" type="curve"/>
			<point x="81" y="260"/>
			<point x="39" y="296"/>
			<point x="32" y="341" type="curve"/>
			<point x="25" y="386"/>
			<point x="42" y="404"/>
			<point x="110" y="425" type="curve"/>
			<point x="155" y="439"/>
			<point x="168" y="438"/>
			<point x="227" y="424" type="curve"/>
			<point x="300" y="407"/>
			<point x="338" y="387"/>
			<point x="338" y="364" type="curve"/>
			<point x="338" y="340"/>
			<point x="309" y="336"/>
			<point x="271" y="354" type="curve"/>
			<point x="239" y="369"/>
			<point x="234" y="369"/>
			<point x="212" y="355" type="curve"/>
			<point x="183" y="336"/>
			<point x="181" y="304"/>
			<point x="207" y="290" type="curve"/>
			<point x="220" y="283"/>
			<point x="278" y="282"/>
			<point x="365" y="286" type="curve"/>
			<point x="575" y="296"/>
			<point x="723" y="261"/>
			<point x="723" y="205" type="curve"/>
			<point x="723" y="180"/>
			<point x="712" y="178"/>
		</contour>
		<component base="_part.oligon_long"/>
		<component base="grave" xOffset="690" yOffset="250"/>
	</outline>
</glyph>
<glyph name="asciitilde" format="2">
	<advance width="214"/>
	<unicode hex="007E"/>
	<outline>
		<contour>
			<point x="77" y="-61" type="curve"/>
			<point x="77" y="-61" type="line"/>
			<point x="45" y="-51"/>
			<point x="28" y="-27"/>
			<point x="12" y="26" type="curve"/>
			<point x="-11" y="101"/>
			<point x="-17" y="113"/>
			<point x="-34" y="119" type="curve"/>
			<point x="-45" y="123"/>
			<point x="-51" y="130"/>
			<point x="-49" y="134" type="curve"/>
			<point x="-43" y="147"/>
			<point x="-5" y="152"/>
			<point x="41" y="146" type="curve"/>
			<point x="93" y="139"/>
			<point x="108" y="124"/>
			<point x="129" y="53" type="curve"/>
			<point x="151" y="-21"/>
			<point x="158" y="-32"/>
			<point x="172" y="-37" type="curve"/>
			<point x="187" y="-42"/>
			<point x="189" y="-57"/>
			<point x="173" y="-64" type="curve"/>
			<point x="159" y="-70"/>
			<point x="103" y="-69"/>
		</contour>
	</outline>
</glyph>
<glyph name="aring" format="2">
	<advance width="0"/>
	<unicode hex="00E5"/>
	<outline>
		<contour>
			<point x="-609" y="257" type="curve"/>
			<point x="-609" y="257" type="line"/>
			<point x="-712" y="271"/>
			<point x="-770" y="303"/>
			<point x="-779" y="339" type="curve"/>
			<point x="-790" y="382"/>
			<point x="-766" y="369"/>
			<point x="-710" y="346" type="curve"/>
			<point x="-595" y="299"/>
			<point x="-516" y="288"/>
			<point x="-564" y="329" type="curve"/>
			<point x="-603" y="362"/>
			<point x="-586" y="378"/>
			<point x="-515" y="378" type="curve"/>
			<point x="-450" y="378"/>
			<point x="-408" y="365"/>
			<point x="-399" y="339" type="curve"/>
			<point x="-390" y="312"/>
			<point x="-393" y="283"/>
			<point x="-410" y="266" type="curve"/>
			<point x="-425" y="251"/>
			<point x="-439" y="249"/>
			<point x="-498" y="249" type="curve"/>
			<point x="-538" y="249"/>
			<point x="-587" y="254"/>
		</contour>
	</outline>
</glyph>
<glyph name="quotedblleft" format="2">
	<advance width="0"/>
	<unicode hex="201C"/>
	<outline>
		<contour>
			<point x="424" y="-343" type="curve"/>
			<point x="424" y="-343" type="line"/>
			<point x="413" y="-341"/>
			<point x="357" y="-325"/>
			<point x="299" y="-307" type="curve"/>
			<point x="162" y="-264"/>
			<point x="71" y="-265"/>
			<point x="-51" y="-305" type="curve"/>
			<point x="-195" y="-352"/>
			<point x="-292" y="-336"/>
			<point x="-317" y="-260" type="curve"/>
			<point x="-330" y="-220"/>
			<point x="-323" y="-193"/>
			<point x="-294" y="-173" type="curve"/>
			<point x="-278" y="-162"/>
			<point x="-272" y="-162"/>
			<point x="-256" y="-174" type="curve"/>
			<point x="-238" y="-187"/>
			<point x="-238" y="-189"/>
			<point x="-253" y="-220" type="curve"/>
			<point x="-262" y="-238"/>
			<point x="-267" y="-259"/>
			<point x="-264" y="-266" type="curve"/>
			<point x="-251" y="-297"/>
			<point x="-152" y="-290"/>
			<point x="-35" y="-251" type="curve"/>
			<point x="-2" y="-240"/>
			<point x="55" y="-228"/>
			<point x="90" y="-225" type="curve"/>
			<point x="146" y="-220"/>
			<point x="168" y="-223"/>
			<point x="268" y="-255" type="curve"/>
			<point x="441" y="-310"/>
			<point x="549" y="-315"/>
			<point x="549" y="-269" type="curve"/>
			<point x="549" y="-258"/>
			<point x="545" y="-240"/>
			<point x="539" y="-229" type="curve"/>
			<point x="524" y="-202"/>
			<point x="563" y="-187"/>
			<point x="600" y="-206" type="curve"/>
			<point x="639" y="-226"/>
			<point x="654" y="-285"/>
			<point x="627" y="-307" type="curve"/>
			<point x="597" y="-331"/>
			<point x="499" y="-353"/>
		</contour>
	</outline>
</glyph>
<glyph name="partialdiff" format="2">
	<advance width="0"/>
	<unicode hex="2202"/>
	<outline>
		<contour>
			<point x="-307" y="-225" type="curve"/>
			<point x="-307" y="-225" type="line"/>
			<point x="-307" y="-220"/>
			<point x="-300" y="-213"/>
			<point x="-292" y="-210" type="curve"/>
			<point x="-283" y="-207"/>
			<point x="-271" y="-191"/>
			<point x="-266" y="-174" type="curve"/>
			<point x="-255" y="-145"/>
			<point x="-254" y="-144"/>
			<point x="-189" y="-144" type="curve"/>
			<point x="-138" y="-144"/>
			<point x="-126" y="-147"/>
			<point x="-140" y="-155" type="curve"/>
			<point x="-149" y="-160"/>
			<point x="-164" y="-181"/>
			<point x="-172" y="-200" type="curve"/>
			<point x="-186" y="-233"/>
			<point x="-187" y="-234"/>
			<point x="-246" y="-234" type="curve"/>
			<point x="-280" y="-234"/>
			<point x="-307" y="-230"/>
		</contour>
	</outline>
</glyph>
<glyph name="notequal" format="2">
	<advance width="0"/>
	<unicode hex="2260"/>
	<outline>
		<contour>
			<point x="43" y="422" type="curve"/>
			<point x="43" y="422" type="line"/>
			<point x="36" y="406"/>
			<point x="12" y="409"/>
			<point x="-2" y="419" type="curve"/>
			<point x="-11" y="426"/>
			<point x="-34" y="447"/>
			<point x="-48" y="466" type="curve"/>
			<point x="-72" y="497"/>
			<point x="-124" y="534"/>
			<point x="-180" y="557" type="curve"/>
			<point x="-289" y="604"/>
			<point x="-398" y="609"/>
			<point x="-497" y="572" type="curve"/>
			<point x="-546" y="554"/>
			<point x="-603" y="513"/>
			<point x="-653" y="461" type="curve"/>
			<point x="-680" y="433"/>
			<point x="-695" y="414"/>
			<point x="-715" y="414" type="curve"/>
			<point x="-741" y="414"/>
			<point x="-735" y="427"/>
			<point x="-683" y="491" type="curve"/>
			<point x="-617" y="573"/>
			<point x="-536" y="624"/>
			<point x="-435" y="643" type="curve"/>
			<point x="-303" y="668"/>
			<point x="-169" y="638"/>
			<point x="-72" y="567" type="curve"/>
			<point x="-41" y="545"/>
			<point x="-13" y="513"/>
			<point x="10" y="482" type="curve"/>
			<point x="35" y="448"/>
			<point x="46" y="429"/>
		</contour>
		<contour>
			<point x="-361" y="438" type="curve"/>
			<point x="-361" y="438" type="line"/>
			<point x="-370" y="442"/>
			<point x="-382" y="453"/>
			<point x="-387" y="462" type="curve"/>
			<point x="-392" y="471"/>
			<point x="-393" y="500"/>
			<point x="-388" y="511" type="curve"/>
			<point x="-371" y="551"/>
			<point x="-311" y="553"/>
			<point x="-291" y="513" type="curve"/>
			<point x="-285" y="501"/>
			<point x="-285" y="482"/>
			<point x="-290" y="470" type="curve"/>
			<point x="-295" y="457"/>
			<point x="-311" y="443"/>
			<point x="-319" y="439" type="curve"/>
			<point x="-329" y="434"/>
			<point x="-352" y="434"/>
		</contour>
	</outline>
</glyph>
<glyph name="_part.antikenoma" format="2">
	<advance width="1043"/>
	<outline>
		<contour>
			<point x="910" y="-296" type="curve"/>
			<point x="910" y="-296" type="line"/>
			<point x="882" y="-275"/>
			<point x="898" y="-247"/>
			<point x="935" y="-252" type="curve"/>
			<point x="994" y="-261"/>
			<point x="952" y="-217"/>
			<point x="878" y="-193" type="curve"/>
			<point x="819" y="-174"/>
			<point x="369" y="-164"/>
			<point x="152" y="-177" type="curve"/>
			<point x="45" y="-183"/>
			<point x="11" y="-182"/>
			<point x="3" y="-173" type="curve"/>
			<point x="-28" y="-138"/>
			<point x="168" y="-116"/>
			<point x="520" y="-116" type="curve"/>
			<point x="741" y="-116"/>
			<point x="816" y="-120"/>
			<point x="877" y="-132" type="curve"/>
			<point x="968" y="-152"/>
			<point x="1031" y="-182"/>
			<point x="1040" y="-210" type="curve"/>
			<point x="1050" y="-240"/>
			<point x="1036" y="-289"/>
			<point x="1015" y="-300" type="curve"/>
			<point x="988" y="-314"/>
			<point x="932" y="-312"/>
		</contour>
	</outline>
</glyph>
<glyph name="_part.apostrophos_small" format="2">
	<advance width="736"/>
	<outline>
		<contour>
			<point x="528" y="-113" type="curve"/>
			<point x="528" y="-113" type="line"/>
			<point x="492" y="-105"/>
			<point x="504" y="-76"/>
			<point x="544" y="-72" type="curve"/>
			<point x="575" y="-69"/>
			<point x="577" y="-66"/>
			<point x="574" y="-37" type="curve"/>
			<point x="570" y="3"/>
			<point x="528" y="26"/>
			<point x="438" y="38" type="curve"/>
			<point x="403" y="43"/>
			<point x="370" y="52"/>
			<point x="364" y="58" type="curve"/>
			<point x="345" y="77"/>
			<point x="363" y="100"/>
			<point x="398" y="100" type="curve"/>
			<point x="443" y="100"/>
			<point x="580" y="66"/>
			<point x="639" y="41" type="curve"/>
			<point x="735" y="0"/>
			<point x="766" y="-64"/>
			<point x="704" y="-96" type="curve"/>
			<point x="672" y="-113"/>
			<point x="571" y="-122"/>
		</contour>
	</outline>
</glyph>
<glyph name="_part.barline" format="2">
	<advance width="34"/>
	<outline>
		<contour>
			<point x="4" y="-77" type="curve"/>
			<point x="4" y="-77" type="line"/>
			<point x="10" y="-80"/>
			<point x="24" y="-80"/>
			<point x="30" y="-77" type="curve"/>
			<point x="37" y="-73"/>
			<point x="34" y="-67"/>
			<point x="34" y="44" type="curve"/>
			<point x="34" y="151"/>
			<point x="37" y="178"/>
			<point x="30" y="181" type="curve"/>
			<point x="23" y="184"/>
			<point x="11" y="184"/>
			<point x="4" y="181" type="curve"/>
			<point x="-3" y="178"/>
			<point x="0" y="151"/>
			<point x="0" y="44" type="curve"/>
			<point x="0" y="-67"/>
			<point x="-3" y="-73"/>
		</contour>
	</outline>
</glyph>
<glyph name="_part.oligon_long" format="2">
	<advance width="1256"/>
	<outline>
		<contour>
			<point x="1206" y="-49" type="curve"/>
			<point x="1206" y="-49" type="line"/>
			<point x="1199" y="-44"/>
			<point x="1166" y="-33"/>
			<point x="1145" y="-28" type="curve"/>
			<point x="1100" y="-17"/>
			<point x="1056" y="-12"/>
			<point x="987" y="-7" type="curve"/>
			<point x="942" y="-4"/>
			<point x="586" y="-6"/>
			<point x="463" y="-9" type="curve"/>
			<point x="375" y="-11"/>
			<point x="299" y="-6"/>
			<point x="223" y="7" type="curve"/>
			<point x="109" y="27"/>
			<point x="40" y="68"/>
			<point x="31" y="118" type="curve"/>
			<point x="27" y="141"/>
			<point x="42" y="154"/>
			<point x="57" y="145" type="curve"/>
			<point x="85" y="128"/>
			<point x="154" y="117"/>
			<point x="226" y="108" type="curve"/>
			<point x="276" y="102"/>
			<point x="435" y="103"/>
			<point x="610" y="107" type="curve"/>
			<point x="774" y="111"/>
			<point x="948" y="112"/>
			<point x="981" y="107" type="curve"/>
			<point x="1069" y="94"/>
			<point x="1145" y="59"/>
			<point x="1211" y="3" type="curve"/>
			<point x="1236" y="-18"/>
			<point x="1228" y="-65"/>
		</contour>
	</outline>
</glyph>
<glyph name="asciitilde.alt" format="2">
	<advance width="232"/>
	<outline>
		<contour>
			<point x="96" y="-68" type="curve"/>
			<point x="96" y="-68" type="line"/>
			<point x="64" y="-58"/>
			<point x="44" y="-26"/>
			<point x="21" y="53" type="curve"/>
			<point x="12" y="88"/>
			<point x="2" y="104"/>
			<point x="-11" y="108" type="curve"/>
			<point x="-49" y="120"/>
			<point x="-21" y="134"/>
			<point x="41" y="134" type="curve"/>
			<point x="117" y="134"/>
			<point x="128" y="124"/>
			<point x="155" y="34" type="curve"/>
			<point x="165" y="0"/>
			<point x="181" y="-34"/>
			<point x="190" y="-43" type="curve"/>
			<point x="200" y="-53"/>
			<point x="204" y="-63"/>
			<point x="201" y="-68" type="curve"/>
			<point x="195" y="-78"/>
			<point x="135" y="-79"/>
		</contour>
	</outline>
</glyph>
<glyph name="cham_klasU" format="2">
	<advance width="1165"/>
	<outline>
		<contour>
			<point x="605" y="-60" type="curve"/>
			<point x="605" y="-60" type="line"/>
			<point x="600" y="-59"/>
			<point x="585" y="-55"/>
			<point x="570" y="-53" type="curve"/>
			<point x="542" y="-46"/>
			<point x="539" y="-31"/>
			<point x="559" y="7" type="curve"/>
			<point x="575" y="38"/>
			<point x="574" y="38"/>
			<point x="495" y="48" type="curve"/>
			<point x="471" y="51"/>
			<point x="417" y="65"/>
			<point x="378" y="78" type="curve"/>
			<point x="283" y="111"/>
			<point x="232" y="156"/>
			<point x="197" y="251" type="curve"/>
			<point x="163" y="345"/>
			<point x="137" y="370"/>
			<point x="87" y="370" type="curve"/>
			<point x="52" y="370"/>
			<point x="45" y="374"/>
			<point x="36" y="394" type="curve"/>
			<point x="17" y="434"/>
			<point x="43" y="441"/>
			<point x="146" y="424" type="curve"/>
			<point x="248" y="407"/>
			<point x="316" y="355"/>
			<point x="338" y="277" type="curve"/>
			<point x="363" y="187"/>
			<point x="436" y="126"/>
			<point x="532" y="111" type="curve"/>
			<point x="569" y="105"/>
			<point x="570" y="105"/>
			<point x="577" y="136" type="curve"/>
			<point x="586" y="178"/>
			<point x="597" y="189"/>
			<point x="635" y="189" type="curve"/>
			<point x="708" y="189"/>
			<point x="722" y="174"/>
			<point x="694" y="129" type="curve"/>
			<point x="686" y="117"/>
			<point x="682" y="103"/>
			<point x="685" y="100" type="curve"/>
			<point x="688" y="97"/>
			<point x="764" y="91"/>
			<point x="852" y="87" type="curve"/>
			<point x="1063" y="78"/>
			<point x="1135" y="60"/>
			<point x="1135" y="16" type="curve"/>
			<point x="1135" y="-9"/>
			<point x="1122" y="-12"/>
			<point x="1083" y="3" type="curve"/>
			<point x="1054" y="14"/>
			<point x="1007" y="18"/>
			<point x="864" y="19" type="curve"/>
			<point x="702" y="20"/>
			<point x="682" y="19"/>
			<point x="682" y="6" type="curve"/>
			<point x="682" y="-25"/>
			<point x="633" y="-67"/>
		</contour>
		<contour>
			<point x="631" y="253" type="curve"/>
			<point x="631" y="253" type="line"/>
			<point x="550" y="269"/>
			<point x="501" y="289"/>
			<point x="477" y="316" type="curve"/>
			<point x="452" y="345"/>
			<point x="448" y="370"/>
			<point x="468" y="370" type="curve"/>
			<point x="474" y="370"/>
			<point x="507" y="358"/>
			<point x="539" y="343" type="curve"/>
			<point x="608" y="311"/>
			<point x="674" y="295"/>
			<point x="695" y="303" type="curve"/>
			<point x="707" y="308"/>
			<point x="707" y="312"/>
			<point x="686" y="331" type="curve"/>
			<point x="648" y="365"/>
			<point x="661" y="375"/>
			<point x="748" y="375" type="curve"/>
			<point x="825" y="375"/>
			<point x="829" y="374"/>
			<point x="850" y="349" type="curve"/>
			<point x="878" y="316"/>
			<point x="877" y="293"/>
			<point x="849" y="266" type="curve"/>
			<point x="829" y="245"/>
			<point x="820" y="243"/>
			<point x="752" y="244" type="curve"/>
			<point x="710" y="245"/>
			<point x="657" y="249"/>
		</contour>
	</outline>
</glyph>
<glyph name="exclam.alt" format="2">
	<advance width="670"/>
	<outline>
		<contour>
			<point x="358" y="-57" type="curve"/>
			<point x="358" y="-57" type="line"/>
			<point x="328" y="-46"/>
			<point x="313" y="-27"/>
			<point x="325" y="-15" type="curve"/>
			<point x="329" y="-11"/>
			<point x="354" y="-4"/>
			<point x="381" y="1" type="curve"/>
			<point x="427" y="8"/>
			<point x="428" y="9"/>
			<point x="428" y="30" type="curve"/>
			<point x="428" y="53"/>
			<point x="411" y="74"/>
			<point x="382" y="90" type="curve"/>
			<point x="355" y="105"/>
			<point x="238" y="119"/>
			<point x="151" y="123" type="curve"/>
			<point x="29" y="129"/>
			<point x="30" y="129"/>
			<point x="30" y="159" type="curve"/>
			<point x="30" y="196"/>
			<point x="46" y="201"/>
			<point x="147" y="192" type="curve"/>
			<point x="365" y="173"/>
			<point x="584" y="112"/>
			<point x="626" y="59" type="curve"/>
			<point x="644" y="35"/>
			<point x="645" y="2"/>
			<point x="628" y="-15" type="curve"/>
			<point x="591" y="-51"/>
			<point x="415" y="-78"/>
		</contour>
	</outline>
</glyph>
<glyph name="olig_elafUL_ken2UR" format="2">
	<advance width="1286"/>
	<outline>
		<contour>
			<point x="1236" y="-49" type="curve"/>
			<point x="1236" y="-49" type="line"/>
			<point x="1229" y="-44"/>
			<point x="1196" y="-33"/>
			<point x="1175" y="-28" type="curve"/>
			<point x="1130" y="-17"/>
			<point x="1086" y="-12"/>
			<point x="1017" y="-7" type="curve"/>
			<point x="972" y="-4"/>
			<point x="616" y="-6"/>
			<point x="493" y="-9" type="curve"/>
			<point x="405" y="-11"/>
			<point x="329" y="-6"/>
			<point x="253" y="7" type="curve"/>
			<point x="139" y="27"/>
			<point x="70" y="68"/>
			<point x="61" y="118" type="curve"/>
			<point x="57" y="141"/>
			<point x="72" y="154"/>
			<point x="87" y="145" type="curve"/>
			<point x="115" y="128"/>
			<point x="184" y="117"/>
			<point x="256" y="108" type="curve"/>
			<point x="306" y="102"/>
			<point x="465" y="103"/>
			<point x="640" y="107" type="curve"/>
			<point x="804" y="111"/>
			<point x="978" y="112"/>
			<point x="1011" y="107" type="curve"/>
			<point x="1099" y="94"/>
			<point x="1175" y="59"/>
			<point x="1241" y="3" type="curve"/>
			<point x="1266" y="-18"/>
			<point x="1258" y="-65"/>
		</contour>
		<contour>
			<point x="1053" y="179" type="curve"/>
			<point x="1053" y="179" type="line"/>
			<point x="1021" y="189"/>
			<point x="1004" y="213"/>
			<point x="988" y="266" type="curve"/>
			<point x="965" y="341"/>
			<point x="959" y="353"/>
			<point x="942" y="359" type="curve"/>
			<point x="931" y="363"/>
			<point x="925" y="370"/>
			<point x="927" y="374" type="curve"/>
			<point x="933" y="387"/>
			<point x="971" y="392"/>
			<point x="1017" y="386" type="curve"/>
			<point x="1069" y="379"/>
			<point x="1084" y="364"/>
			<point x="1105" y="293" type="curve"/>
			<point x="1127" y="219"/>
			<point x="1134" y="208"/>
			<point x="1148" y="203" type="curve"/>
			<point x="1163" y="198"/>
			<point x="1165" y="183"/>
			<point x="1149" y="176" type="curve"/>
			<point x="1135" y="170"/>
			<point x="1079" y="171"/>
		</contour>
		<contour>
			<point x="853" y="179" type="curve"/>
			<point x="853" y="179" type="line"/>
			<point x="821" y="189"/>
			<point x="804" y="213"/>
			<point x="788" y="266" type="curve"/>
			<point x="765" y="341"/>
			<point x="759" y="353"/>
			<point x="742" y="359" type="curve"/>
			<point x="731" y="363"/>
			<point x="725" y="370"/>
			<point x="727" y="374" type="curve"/>
			<point x="733" y="387"/>
			<point x="771" y="392"/>
			<point x="817" y="386" type="curve"/>
			<point x="869" y="379"/>
			<point x="884" y="364"/>
			<point x="905" y="293" type="curve"/>
			<point x="927" y="219"/>
			<point x="934" y="208"/>
			<point x="948" y="203" type="curve"/>
			<point x="963" y="198"/>
			<point x="965" y="183"/>
			<point x="949" y="176" type="curve"/>
			<point x="935" y="170"/>
			<point x="879" y="171"/>
		</contour>
		<contour>
			<point x="157" y="212" type="curve"/>
			<point x="157" y="212" type="line"/>
			<point x="67" y="226"/>
			<point x="11" y="254"/>
			<point x="4" y="284" type="curve"/>
			<point x="-7" y="330"/>
			<point x="40" y="359"/>
			<point x="174" y="382" type="curve"/>
			<point x="263" y="397"/>
			<point x="346" y="396"/>
			<point x="480" y="378" type="curve"/>
			<point x="652" y="355"/>
			<point x="729" y="314"/>
			<point x="724" y="250" type="curve"/>
			<point x="722" y="224"/>
			<point x="719" y="221"/>
			<point x="694" y="213" type="curve"/>
			<point x="649" y="199"/>
			<point x="509" y="211"/>
			<point x="509" y="231" type="curve"/>
			<point x="509" y="235"/>
			<point x="520" y="240"/>
			<point x="534" y="242" type="curve"/>
			<point x="591" y="249"/>
			<point x="598" y="262"/>
			<point x="571" y="290" type="curve"/>
			<point x="524" y="336"/>
			<point x="448" y="356"/>
			<point x="319" y="357" type="curve"/>
			<point x="184" y="358"/>
			<point x="123" y="337"/>
			<point x="123" y="292" type="curve"/>
			<point x="123" y="270"/>
			<point x="152" y="249"/>
			<point x="191" y="242" type="curve"/>
			<point x="224" y="236"/>
			<point x="233" y="230"/>
			<point x="227" y="216" type="curve"/>
			<point x="222" y="205"/>
			<point x="213" y="204"/>
		</contour>
	</outline>
</glyph>
<glyph name="olig_klasU_hypsUR" format="2">
	<advance width="1288"/>
	<outline>
		<contour>
			<point x="1011" y="201" type="curve"/>
			<point x="1011" y="201" type="line"/>
			<point x="972" y="218"/>
			<point x="914" y="245"/>
			<point x="883" y="262" type="curve"/>
			<point x="826" y="290" type="line"/>
			<point x="870" y="297" type="line" smooth="yes"/>
			<point x="894" y="301"/>
			<point x="935" y="317"/>
			<point x="964" y="334" type="curve"/>
			<point x="1037" y="378"/>
			<point x="1065" y="435"/>
			<point x="1077" y="573" type="curve"/>
			<point x="1088" y="692"/>
			<point x="1111" y="752"/>
			<point x="1154" y="774" type="curve"/>
			<point x="1189" y="792"/>
			<point x="1211" y="792"/>
			<point x="1237" y="773" type="curve"/>
			<point x="1261" y="757"/>
			<point x="1266" y="708"/>
			<point x="1246" y="696" type="curve"/>
			<point x="1215" y="678"/>
			<point x="1203" y="639"/>
			<point x="1198" y="541" type="curve"/>
			<point x="1195" y="485"/>
			<point x="1188" y="427"/>
			<point x="1182" y="412" type="curve"/>
			<point x="1159" y="352"/>
			<point x="1073" y="286"/>
			<point x="992" y="269" type="curve"/>
			<point x="958" y="262" type="line"/>
			<point x="1001" y="249" type="line" smooth="yes"/>
			<point x="1052" y="234"/>
			<point x="1118" y="197"/>
			<point x="1119" y="184" type="curve"/>
			<point x="1121" y="164"/>
			<point x="1079" y="170"/>
		</contour>
		<contour>
			<point x="480" y="226" type="curve"/>
			<point x="480" y="226" type="line"/>
			<point x="403" y="238"/>
			<point x="327" y="265"/>
			<point x="301" y="291" type="curve"/>
			<point x="276" y="316"/>
			<point x="267" y="366"/>
			<point x="290" y="357" type="curve"/>
			<point x="397" y="308"/>
			<point x="470" y="284"/>
			<point x="506" y="284" type="curve"/>
			<point x="549" y="284" type="line"/>
			<point x="521" y="306" type="line" smooth="yes"/>
			<point x="471" y="348"/>
			<point x="515" y="378"/>
			<point x="611" y="364" type="curve"/>
			<point x="673" y="356"/>
			<point x="706" y="330"/>
			<point x="706" y="290" type="curve"/>
			<point x="706" y="254"/>
			<point x="699" y="243"/>
			<point x="671" y="227" type="curve"/>
			<point x="648" y="216"/>
			<point x="557" y="215"/>
		</contour>
		<contour>
			<point x="1160" y="-41" type="curve"/>
			<point x="1160" y="-41" type="line"/>
			<point x="1114" y="-15"/>
			<point x="929" y="-6"/>
			<point x="606" y="-5" type="curve"/>
			<point x="326" y="-4"/>
			<point x="260" y="-2"/>
			<point x="203" y="13" type="curve"/>
			<point x="112" y="36"/>
			<point x="60" y="64"/>
			<point x="40" y="101" type="curve"/>
			<point x="17" y="146"/>
			<point x="33" y="155"/>
			<point x="97" y="134" type="curve"/>
			<point x="144" y="118"/>
			<point x="196" y="115"/>
			<point x="514" y="114" type="curve"/>
			<point x="847" y="112"/>
			<point x="967" y="110"/>
			<point x="1029" y="91" type="curve"/>
			<point x="1108" y="67"/>
			<point x="1205" y="3"/>
			<point x="1205" y="-25" type="curve"/>
			<point x="1205" y="-47"/>
			<point x="1183" y="-54"/>
		</contour>
	</outline>
</glyph>
<glyph name="one.alt" format="2">
	<advance width="1127"/>
	<outline>
		<contour>
			<point x="1080" y="-41" type="curve"/>
			<point x="1080" y="-41" type="line"/>
			<point x="1034" y="-15"/>
			<point x="929" y="-6"/>
			<point x="606" y="-5" type="curve"/>
			<point x="326" y="-4"/>
			<point x="260" y="-2"/>
			<point x="203" y="13" type="curve"/>
			<point x="112" y="36"/>
			<point x="60" y="64"/>
			<point x="40" y="101" type="curve"/>
			<point x="17" y="146"/>
			<point x="33" y="155"/>
			<point x="97" y="134" type="curve"/>
			<point x="144" y="118"/>
			<point x="196" y="115"/>
			<point x="514" y="114" type="curve"/>
			<point x="847" y="112"/>
			<point x="887" y="110"/>
			<point x="949" y="91" type="curve"/>
			<point x="1028" y="67"/>
			<point x="1125" y="3"/>
			<point x="1125" y="-25" type="curve"/>
			<point x="1125" y="-47"/>
			<point x="1103" y="-54"/>
		</contour>
	</outline>
</glyph>
<glyph name="tie" format="2">
	<advance width="0"/>
	<outline>
		<contour>
			<point x="-656" y="701" type="curve"/>
			<point x="-656" y="701" type="line"/>
			<point x="-657" y="711"/>
			<point x="-623" y="723"/>
			<point x="-590" y="738" type="curve"/>
			<point x="-464" y="792"/>
			<point x="-369" y="820"/>
			<point x="-228" y="836" type="curve"/>
			<point x="-189" y="841"/>
			<point x="-72" y="842"/>
			<point x="-2" y="836" type="curve"/>
			<point x="118" y="826"/>
			<point x="233" y="797"/>
			<point x="332" y="754" type="curve"/>
			<point x="370" y="738"/>
			<point x="413" y="719"/>
			<point x="428" y="709" type="curve"/>
			<point x="434" y="705"/>
			<point x="435" y="703"/>
			<point x="434" y="701" type="curve"/>
			<point x="433" y="699"/>
			<point x="428" y="700"/>
			<point x="416" y="701" type="curve"/>
			<point x="385" y="704"/>
			<point x="369" y="708"/>
			<point x="327" y="725" type="curve"/>
			<point x="257" y="753"/>
			<point x="137" y="777"/>
			<point x="34" y="787" type="curve"/>
			<point x="-110" y="804"/>
			<point x="-174" y="798"/>
			<point x="-359" y="774" type="curve"/>
			<point x="-415" y="762"/>
			<point x="-483" y="744"/>
			<point x="-549" y="723" type="curve"/>
			<point x="-572" y="716"/>
			<point x="-597" y="707"/>
			<point x="-607" y="705" type="curve"/>
			<point x="-627" y="701"/>
			<point x="-656" y="698"/>
		</contour>
	</outline>
</glyph>
